<?xml version="1.0" encoding="UTF-8"?><svg id="Layer_1" xmlns="http://www.w3.org/2000/svg" viewBox="0 0 188.26 150.81"><defs><style>.cls-1{fill:#ffb8c8;stroke:#6d8a96;stroke-width:.39px;}.cls-1,.cls-2,.cls-3{stroke-miterlimit:10;}.cls-4{fill:#5d707f;}.cls-4,.cls-5,.cls-6{stroke-width:0px;}.cls-2{stroke-width:1.57px;}.cls-2,.cls-5,.cls-3{fill:#6d8a96;}.cls-2,.cls-3{stroke:#5d707f;}.cls-3{stroke-width:1.18px;}.cls-6{fill:#f3e9d2;}</style></defs><line class="cls-5" x1="26.97" y1="20.59" x2="57.17" y2="77.54"/><path class="cls-6" d="M26.97,20.59c10.72,18.53,20.88,37.67,30.21,56.94-10.73-18.53-20.88-37.67-30.21-56.94h0Z"/><line class="cls-5" x1="55.68" y1="80.01" x2="6.6" y2="27.69"/><path class="cls-6" d="M55.68,80.01C38.81,63.18,22.31,45.61,6.6,27.69c16.87,16.83,33.36,34.41,49.08,52.32h0Z"/><path class="cls-1" d="M63.19,108.21c-1.97,4.57-3.4,8.95-4.21,12l-.98-.27c1.79-7.79.09-11.19-4.03-11.19-3.22,0-4.83,3.31-4.83,6.27,0,2.42.36,3.58,1.7,5.37,1.43,2.24,4.48,6.27,5.73,8.15,1.34,2.06,2.06,4.12,2.06,6.8,0,3.67-1.52,6.45-3.67,8.5-2.42,2.24-5.55,3.49-9.4,3.49-2.86,0-6.89-1.07-9.58-2.86.9-2.15,2.77-6.98,4.03-11.64l1.16-.18c-.45,1.34-.81,3.04-1.07,5.1-.54,5.37,1.97,8.33,6.45,8.33,3.31,0,5.64-2.06,5.82-6,.09-1.43-.18-2.87-1.07-4.3-1.07-1.88-3.85-5.82-5.91-8.86-1.34-1.97-2.24-4.21-2.24-7.34,0-3.76,1.43-6.89,3.76-9.13,2.24-2.15,4.92-2.86,7.52-2.86,2.86,0,5.37,1.25,6.27,2.6l1.97-2.78.54.81Z"/><path class="cls-1" d="M80.55,138.46c-2.51,5.46-7.88,8.86-12.35,8.86-5.73,0-6.18-3.22-4.74-7.97,2.42-8.33,6.09-20.95,8.33-28.74l-4.39-.36.72-1.25h4.21c1.16-4.03,2.15-7.7,2.86-10.03,2.6-.36,5.91-.81,8.5-1.79-.72,1.7-2.24,6.89-3.76,11.82h6.8l-.9,1.25-6.36.36c-2.24,6.71-7.25,24.08-9.04,31.96-.36,1.52,0,2.15,1.43,2.15,3.67,0,6.45-4.21,7.97-8.5l.72,2.24Z"/><path class="cls-1" d="M86.91,109.73c3.67-.09,9.58-.99,12.26-2.15-.18,2.33-2.06,9.76-3.49,15.13h.27c5.19-12.17,8.33-15.13,12.09-15.13,1.88,0,3.22,1.79,3.22,3.67,0,3.85-2.6,6.36-4.66,6.36-.9,0-1.52-.54-1.88-1.34-.45-1.25-.72-1.61-1.52-1.61-1.61,0-4.57,4.66-7.07,11.1-2.06,5.28-4.39,11.82-6.8,20.5-2.69.09-5.55.45-7.88.81,3.13-9.04,8.42-25.6,9.58-34.56.18-1.16-.18-1.52-1.16-1.61-.81-.09-2.69-.09-3.49-.09l.54-1.07Z"/><path class="cls-1" d="M131.58,137.57c-2.24,4.48-8.15,9.76-15.22,9.76-5.82,0-7.88-5.1-7.88-10.56,0-8.06,4.03-18.89,10.47-25.07,3.04-2.77,6.54-4.12,9.4-4.12,5.1,0,6.89,3.04,6.89,7.61,0,3.04-1.43,5.1-2.69,6.09-3.4,2.69-11.37,5.37-15.04,6.27-.63,2.42-1.25,6.62-1.25,9.85,0,4.39,1.16,7.25,3.94,7.25,4.39,0,8.42-3.58,10.74-10.12h.45l.18,3.04ZM127.55,108.92c-1.25,0-5.28,2.06-9.67,17.19,2.42-.72,5.46-2.15,6.98-3.04,3.13-2.06,4.57-6.36,4.57-10.47,0-2.42-.54-3.67-1.79-3.67h-.09Z"/><path class="cls-1" d="M159.24,137.57c-2.24,4.48-8.15,9.76-15.22,9.76-5.82,0-7.88-5.1-7.88-10.56,0-8.06,4.03-18.89,10.47-25.07,3.04-2.77,6.54-4.12,9.4-4.12,5.1,0,6.89,3.04,6.89,7.61,0,3.04-1.43,5.1-2.69,6.09-3.4,2.69-11.37,5.37-15.04,6.27-.63,2.42-1.25,6.62-1.25,9.85,0,4.39,1.16,7.25,3.94,7.25,4.39,0,8.42-3.58,10.74-10.12h.45l.18,3.04ZM155.21,108.92c-1.25,0-5.28,2.06-9.67,17.19,2.42-.72,5.46-2.15,6.98-3.04,3.13-2.06,4.57-6.36,4.57-10.47,0-2.42-.54-3.67-1.79-3.67h-.09Z"/><path class="cls-1" d="M180.9,138.46c-2.51,5.46-7.88,8.86-12.35,8.86-5.73,0-6.18-3.22-4.74-7.97,2.42-8.33,6.09-20.95,8.33-28.74l-4.39-.36.72-1.25h4.21c1.16-4.03,2.15-7.7,2.87-10.03,2.6-.36,5.91-.81,8.5-1.79-.72,1.7-2.24,6.89-3.76,11.82h6.8l-.9,1.25-6.36.36c-2.24,6.71-7.25,24.08-9.04,31.96-.36,1.52,0,2.15,1.43,2.15,3.67,0,6.45-4.21,7.97-8.5l.72,2.24Z"/><path class="cls-2" d="M11.09,39.87C15.84,30.61,23.43,8.53,24.86,1.88c3.09,1.66,8.07,2.37,34.91,2.37,24.46,0,28.73.24,33.24,0l.47,1.19c-4.75,10.92-17.33,31.58-27.31,47.02-22.56,33.24-41.08,63.64-49.63,96.17l-.71.47c-4.75-.24-8.79-.95-11.16-2.61-1.9-1.42-3.32-3.56-2.85-7.36,1.42-6.89,9.74-21.61,22.08-39.66,14.96-22.56,41.56-55.56,55.09-77.41-5.94-.71-19.47-.71-31.58-.71-18.76,0-21.13,1.66-24.93,7.6-2.61,3.8-5.46,9.02-7.12,12.58l-4.27-1.66Z"/><path class="cls-3" d="M112.53,39.7l-.57,1.99-12.91.71c-.14,4.97-.43,14.04-.43,24.97,0,16.17.14,22.13.57,25.82.43,2.98,2.13,4.4,4.54,4.4,4.54,0,7.8-4.97,8.79-11.35h.71l.85,2.7c-2.27,7.38-7.38,12.06-14.9,12.06-3.97,0-7.23-1.13-8.94-3.12-1.56-1.7-2.13-3.97-2.13-7.94,0-12.48.57-35.04.57-47.52l-7.52-.85.57-1.84h7.09c0-4.54.14-9.22.14-12.77,4.54-2.13,7.94-4.4,10.07-5.96l.71.14c0,2.84-.57,12.2-.57,18.58h13.33Z"/><path class="cls-3" d="M115.5,5.09c5.39,0,14.04-.99,17.02-1.56-.28,6.67-.57,17.45-.57,29.22v13.9c3.83-4.11,8.8-8.65,16.31-8.65,5.96,0,8.94,3.12,10.07,5.11,1.56,2.27,1.99,5.96,1.99,9.79,0,14.47,0,32.63.14,41.71,0,2.84.42,3.26,5.82,3.55l-.28,1.56c-1.42,0-6.24-.43-10.92-.43s-9.5.43-10.92.43l.14-1.56c3.83-.14,5.25-.85,5.39-3.26.14-2.7.57-9.93.57-21.71,0-21.28-.28-22.27-.57-24.12-.71-3.55-2.55-6.53-7.09-6.53-3.69,0-7.52,2.27-9.65,6.24-.85,1.84-.99,3.4-.99,5.82v23.83c0,7.23.14,12.91.28,16.17.28,2.84,1.84,3.26,5.67,3.55v1.56c-2.41,0-8.37-.43-12.06-.43-4.26,0-8.23.43-10.21.43v-1.56c4.54-.14,5.67-.85,5.82-3.83.28-4.96.43-10.35.43-22.27v-39.58c0-14.19,0-20-.28-23.55-.14-2.13-1.42-2.55-5.96-2.55l-.14-1.28Z"/><path class="cls-6" d="M72.95,60.79s-15.79,24.4,9.05,21.89c0,0-12.27-.49-15.62,8.8-2.5,6.92,2.93,10.7,2.93,10.7,0,0-13.7-9.2-20.11,1.53,0,0,11.32-14.66,1.62-20.5,0,0,5.91,6.31,22.13-22.42Z"/><path class="cls-4" d="M72.95,60.79c-3.66,6.01-9.18,18.5.75,21.35,2.68.76,5.53.7,8.29.43v.23c-5.02.01-10.55,1.52-13.77,5.62-3.25,4.05-3.19,10.41,1.18,13.63,0,0-.19.28-.19.28-6.07-3.95-15.66-6.09-19.89,1.47,0,0-.26-.17-.26-.17,1.15-1.54,2.17-3.19,3.05-4.9,2.62-4.76,4.33-12.19-1.37-15.4,0,0,.14-.18.14-.18,1.07.87,2.66.54,3.84.04,3.15-1.45,5.55-4.19,7.79-6.76,3.97-4.86,7.27-10.2,10.42-15.62h0ZM72.95,60.79c-3.09,5.42-6.35,10.85-10.28,15.74-2.25,2.61-4.66,5.37-7.84,6.85-1.28.54-2.9.89-4.09-.08,0,0,.14-.18.14-.18,7.75,4.8,2.53,15.08-1.56,20.69,0,0-.26-.17-.26-.17,1.9-3.41,5.69-5.55,9.6-5.28,3.85.16,7.5,1.68,10.74,3.69,0,0-.19.28-.19.28-4.52-3.34-4.58-9.9-1.22-14.07,3.31-4.17,8.88-5.68,14.01-5.68,0,0,0,.23,0,.23-2.78.26-5.65.32-8.37-.46-10.08-2.92-4.49-15.48-.69-21.54h0Z"/><line class="cls-5" x1="60.84" y1="75.32" x2="44.52" y2="27.36"/><path class="cls-6" d="M60.84,75.32c-6.17-15.66-11.67-31.79-16.32-47.96,6.18,15.66,11.66,31.79,16.32,47.96h0Z"/><line class="cls-5" x1="55.28" y1="79.54" x2="38.61" y2="61.89"/><path class="cls-6" d="M55.28,79.54c-6.14-5.33-11.7-11.21-16.66-17.65,6.14,5.32,11.7,11.22,16.66,17.65h0Z"/></svg>